# xmcd
#
# Track frame offsets:
#	150
#	15585
#	39563
#	67540
#	82243
#	103642
#	117787
#	121504
#	140603
#	144503
#	165671
#	182076
#	199242
#
# Disc length: 2908 seconds
#
# Revision: 1
# Processed by: cddbd v1.5.2PL0 Copyright (c) Steve Scherf et al.
# Submitted via: audiograbber 1.83.01
#
DISCID=a90b5a0d
DTITLE=Big Brother and The Holding Company - Do what you love
DYEAR=1999
DGENRE=Psychedelic Rock
TTITLE0=Take Off
TTITLE1=Save Your Love
TTITLE2=I Need A Man To Love
TTITLE3=Bo's Bayou
TTITLE4=Women Is Losers
TTITLE5=Freedom
TTITLE6=The OK Chorale
TTITLE7=Do What You Love
TTITLE8=Backdoor Jamb
TTITLE9=Feed The Flame
TTITLE10=It's Cool
TTITLE11=Looking Back
TTITLE12=X Factor
EXTD=
EXTT0=
EXTT1=
EXTT2=
EXTT3=
EXTT4=
EXTT5=
EXTT6=
EXTT7=
EXTT8=
EXTT9=
EXTT10=
EXTT11=
EXTT12=
PLAYORDER=
